<mxfile host="app.diagrams.net" modified="2024-05-20T17:25:38.903Z" agent="Mozilla/5.0 (Windows NT 10.0; Win64; x64) AppleWebKit/537.36 (KHTML, like Gecko) Chrome/125.0.0.0 Safari/537.36" etag="wPEeBnSwqJXr4znLkkat" version="24.4.4" type="device">
  <diagram name="Page-1" id="zAi-oj6t3CUo5sBa_yJG">
    <mxGraphModel dx="2035" dy="637" grid="1" gridSize="10" guides="1" tooltips="1" connect="1" arrows="1" fold="1" page="1" pageScale="1" pageWidth="850" pageHeight="1100" math="0" shadow="0">
      <root>
        <mxCell id="0" />
        <mxCell id="1" parent="0" />
        <mxCell id="G0e2nMKtBYxSNKSzk7I6-1" value="" style="rounded=0;whiteSpace=wrap;html=1;fillColor=#dae8fc;strokeColor=#6c8ebf;" parent="1" vertex="1">
          <mxGeometry x="120" y="200" width="400" height="570" as="geometry" />
        </mxCell>
        <mxCell id="G0e2nMKtBYxSNKSzk7I6-2" value="&lt;b&gt;System&lt;/b&gt;" style="text;html=1;strokeColor=none;fillColor=none;align=center;verticalAlign=middle;whiteSpace=wrap;rounded=0;" parent="1" vertex="1">
          <mxGeometry x="120" y="200" width="60" height="30" as="geometry" />
        </mxCell>
        <mxCell id="G0e2nMKtBYxSNKSzk7I6-3" value="Beiträge erstellen" style="ellipse;whiteSpace=wrap;html=1;fillColor=#fff2cc;strokeColor=#d6b656;" parent="1" vertex="1">
          <mxGeometry x="250" y="310" width="140" height="80" as="geometry" />
        </mxCell>
        <mxCell id="G0e2nMKtBYxSNKSzk7I6-4" value="Beiträge bewerten" style="ellipse;whiteSpace=wrap;html=1;fillColor=#fff2cc;strokeColor=#d6b656;" parent="1" vertex="1">
          <mxGeometry x="250" y="400" width="140" height="80" as="geometry" />
        </mxCell>
        <mxCell id="G0e2nMKtBYxSNKSzk7I6-5" value="Beiträge kommentieren" style="ellipse;whiteSpace=wrap;html=1;fillColor=#fff2cc;strokeColor=#d6b656;" parent="1" vertex="1">
          <mxGeometry x="250" y="490" width="140" height="80" as="geometry" />
        </mxCell>
        <mxCell id="G0e2nMKtBYxSNKSzk7I6-6" value="Tag hinzufügen" style="ellipse;whiteSpace=wrap;html=1;fillColor=#fff2cc;strokeColor=#d6b656;" parent="1" vertex="1">
          <mxGeometry x="250" y="580" width="140" height="80" as="geometry" />
        </mxCell>
        <mxCell id="G0e2nMKtBYxSNKSzk7I6-8" value="Identitätsanbieter&amp;nbsp;" style="shape=umlActor;verticalLabelPosition=bottom;verticalAlign=top;html=1;outlineConnect=0;fillColor=#e1d5e7;strokeColor=#9673a6;" parent="1" vertex="1">
          <mxGeometry x="560" y="420" width="50" height="100" as="geometry" />
        </mxCell>
        <mxCell id="G0e2nMKtBYxSNKSzk7I6-9" value="Anonymer Benutzer&amp;nbsp;" style="shape=umlActor;verticalLabelPosition=bottom;verticalAlign=top;html=1;outlineConnect=0;fillColor=#f8cecc;strokeColor=#b85450;" parent="1" vertex="1">
          <mxGeometry x="30" y="330" width="50" height="100" as="geometry" />
        </mxCell>
        <mxCell id="G0e2nMKtBYxSNKSzk7I6-10" value="Verifizierter Benutzer&amp;nbsp;" style="shape=umlActor;verticalLabelPosition=bottom;verticalAlign=top;html=1;outlineConnect=0;fillColor=#d5e8d4;strokeColor=#82b366;" parent="1" vertex="1">
          <mxGeometry x="30" y="490" width="50" height="100" as="geometry" />
        </mxCell>
        <mxCell id="G0e2nMKtBYxSNKSzk7I6-13" value="" style="endArrow=classic;html=1;rounded=0;" parent="1" edge="1">
          <mxGeometry width="50" height="50" relative="1" as="geometry">
            <mxPoint x="170" y="349.71" as="sourcePoint" />
            <mxPoint x="250" y="349.71" as="targetPoint" />
          </mxGeometry>
        </mxCell>
        <mxCell id="G0e2nMKtBYxSNKSzk7I6-18" value="" style="endArrow=classic;html=1;rounded=0;" parent="1" edge="1">
          <mxGeometry width="50" height="50" relative="1" as="geometry">
            <mxPoint x="170" y="439.71" as="sourcePoint" />
            <mxPoint x="250" y="439.71" as="targetPoint" />
          </mxGeometry>
        </mxCell>
        <mxCell id="G0e2nMKtBYxSNKSzk7I6-19" value="" style="endArrow=classic;html=1;rounded=0;" parent="1" edge="1">
          <mxGeometry width="50" height="50" relative="1" as="geometry">
            <mxPoint x="170" y="529.71" as="sourcePoint" />
            <mxPoint x="250" y="529.71" as="targetPoint" />
          </mxGeometry>
        </mxCell>
        <mxCell id="G0e2nMKtBYxSNKSzk7I6-20" value="" style="endArrow=classic;html=1;rounded=0;" parent="1" edge="1">
          <mxGeometry width="50" height="50" relative="1" as="geometry">
            <mxPoint x="170" y="619.71" as="sourcePoint" />
            <mxPoint x="250" y="619.71" as="targetPoint" />
          </mxGeometry>
        </mxCell>
        <mxCell id="G0e2nMKtBYxSNKSzk7I6-21" value="" style="endArrow=classic;html=1;rounded=0;fillColor=#e1d5e7;strokeColor=#9673a6;" parent="1" edge="1">
          <mxGeometry width="50" height="50" relative="1" as="geometry">
            <mxPoint x="470" y="709.71" as="sourcePoint" />
            <mxPoint x="390" y="709.71" as="targetPoint" />
          </mxGeometry>
        </mxCell>
        <mxCell id="G0e2nMKtBYxSNKSzk7I6-22" value="" style="endArrow=none;html=1;rounded=0;fillColor=#d5e8d4;strokeColor=#82b366;" parent="1" target="G0e2nMKtBYxSNKSzk7I6-10" edge="1">
          <mxGeometry width="50" height="50" relative="1" as="geometry">
            <mxPoint x="170" y="620" as="sourcePoint" />
            <mxPoint x="220" y="570" as="targetPoint" />
          </mxGeometry>
        </mxCell>
        <mxCell id="G0e2nMKtBYxSNKSzk7I6-23" value="" style="endArrow=none;html=1;rounded=0;fillColor=#d5e8d4;strokeColor=#82b366;" parent="1" target="G0e2nMKtBYxSNKSzk7I6-10" edge="1">
          <mxGeometry width="50" height="50" relative="1" as="geometry">
            <mxPoint x="170" y="530" as="sourcePoint" />
            <mxPoint x="80" y="560" as="targetPoint" />
          </mxGeometry>
        </mxCell>
        <mxCell id="G0e2nMKtBYxSNKSzk7I6-24" value="" style="endArrow=none;html=1;rounded=0;fillColor=#d5e8d4;strokeColor=#82b366;" parent="1" target="G0e2nMKtBYxSNKSzk7I6-10" edge="1">
          <mxGeometry width="50" height="50" relative="1" as="geometry">
            <mxPoint x="170" y="440" as="sourcePoint" />
            <mxPoint x="80" y="480" as="targetPoint" />
          </mxGeometry>
        </mxCell>
        <mxCell id="G0e2nMKtBYxSNKSzk7I6-25" value="" style="endArrow=none;html=1;rounded=0;fillColor=#d5e8d4;strokeColor=#82b366;" parent="1" target="G0e2nMKtBYxSNKSzk7I6-10" edge="1">
          <mxGeometry width="50" height="50" relative="1" as="geometry">
            <mxPoint x="170" y="350" as="sourcePoint" />
            <mxPoint x="90" y="448" as="targetPoint" />
          </mxGeometry>
        </mxCell>
        <mxCell id="G0e2nMKtBYxSNKSzk7I6-26" value="" style="endArrow=none;html=1;rounded=0;fillColor=#f8cecc;strokeColor=#b85450;" parent="1" target="G0e2nMKtBYxSNKSzk7I6-9" edge="1">
          <mxGeometry width="50" height="50" relative="1" as="geometry">
            <mxPoint x="170" y="530" as="sourcePoint" />
            <mxPoint x="80" y="625" as="targetPoint" />
          </mxGeometry>
        </mxCell>
        <mxCell id="G0e2nMKtBYxSNKSzk7I6-27" value="" style="endArrow=none;html=1;rounded=0;fillColor=#f8cecc;strokeColor=#b85450;" parent="1" target="G0e2nMKtBYxSNKSzk7I6-9" edge="1">
          <mxGeometry width="50" height="50" relative="1" as="geometry">
            <mxPoint x="170" y="440" as="sourcePoint" />
            <mxPoint x="80" y="330" as="targetPoint" />
          </mxGeometry>
        </mxCell>
        <mxCell id="G0e2nMKtBYxSNKSzk7I6-28" value="" style="endArrow=none;html=1;rounded=0;fillColor=#f8cecc;strokeColor=#b85450;" parent="1" target="G0e2nMKtBYxSNKSzk7I6-9" edge="1">
          <mxGeometry width="50" height="50" relative="1" as="geometry">
            <mxPoint x="170" y="350" as="sourcePoint" />
            <mxPoint x="70" y="300" as="targetPoint" />
          </mxGeometry>
        </mxCell>
        <mxCell id="G0e2nMKtBYxSNKSzk7I6-29" value="" style="endArrow=none;html=1;rounded=0;fillColor=#e1d5e7;strokeColor=#9673a6;" parent="1" edge="1">
          <mxGeometry width="50" height="50" relative="1" as="geometry">
            <mxPoint x="470" y="710" as="sourcePoint" />
            <mxPoint x="580" y="540" as="targetPoint" />
          </mxGeometry>
        </mxCell>
        <mxCell id="G0e2nMKtBYxSNKSzk7I6-30" value="Chatroom folgen" style="ellipse;whiteSpace=wrap;html=1;fillColor=#fff2cc;strokeColor=#d6b656;" parent="1" vertex="1">
          <mxGeometry x="250" y="220" width="140" height="80" as="geometry" />
        </mxCell>
        <mxCell id="G0e2nMKtBYxSNKSzk7I6-31" value="" style="endArrow=classic;html=1;rounded=0;" parent="1" edge="1">
          <mxGeometry width="50" height="50" relative="1" as="geometry">
            <mxPoint x="170" y="259.71" as="sourcePoint" />
            <mxPoint x="250" y="259.71" as="targetPoint" />
          </mxGeometry>
        </mxCell>
        <mxCell id="G0e2nMKtBYxSNKSzk7I6-32" value="" style="endArrow=none;html=1;rounded=0;fillColor=#f8cecc;strokeColor=#b85450;" parent="1" target="G0e2nMKtBYxSNKSzk7I6-9" edge="1">
          <mxGeometry width="50" height="50" relative="1" as="geometry">
            <mxPoint x="170" y="260" as="sourcePoint" />
            <mxPoint x="80" y="300" as="targetPoint" />
          </mxGeometry>
        </mxCell>
        <mxCell id="G0e2nMKtBYxSNKSzk7I6-33" value="" style="endArrow=none;html=1;rounded=0;fillColor=#d5e8d4;strokeColor=#82b366;" parent="1" target="G0e2nMKtBYxSNKSzk7I6-10" edge="1">
          <mxGeometry width="50" height="50" relative="1" as="geometry">
            <mxPoint x="170" y="260" as="sourcePoint" />
            <mxPoint x="80" y="424.5" as="targetPoint" />
          </mxGeometry>
        </mxCell>
        <mxCell id="-2WE_b9KWp48QkawDKU3-4" value="Benutzer verifizieren" style="ellipse;whiteSpace=wrap;html=1;fillColor=#fff2cc;strokeColor=#d6b656;" parent="1" vertex="1">
          <mxGeometry x="250" y="670" width="140" height="80" as="geometry" />
        </mxCell>
        <mxCell id="-2WE_b9KWp48QkawDKU3-5" value="" style="endArrow=classic;html=1;rounded=0;" parent="1" edge="1">
          <mxGeometry width="50" height="50" relative="1" as="geometry">
            <mxPoint x="170" y="709.58" as="sourcePoint" />
            <mxPoint x="250" y="709.58" as="targetPoint" />
          </mxGeometry>
        </mxCell>
        <mxCell id="-2WE_b9KWp48QkawDKU3-6" value="" style="endArrow=none;html=1;rounded=0;fillColor=#d5e8d4;strokeColor=#82b366;" parent="1" target="G0e2nMKtBYxSNKSzk7I6-10" edge="1">
          <mxGeometry width="50" height="50" relative="1" as="geometry">
            <mxPoint x="170" y="710" as="sourcePoint" />
            <mxPoint x="80" y="647" as="targetPoint" />
          </mxGeometry>
        </mxCell>
        <mxCell id="YPuV1PBHbBj9dNhDauyU-1" value="" style="endArrow=none;html=1;rounded=0;fillColor=#f8cecc;strokeColor=#b85450;" edge="1" parent="1" target="G0e2nMKtBYxSNKSzk7I6-9">
          <mxGeometry width="50" height="50" relative="1" as="geometry">
            <mxPoint x="170" y="620" as="sourcePoint" />
            <mxPoint x="80" y="500" as="targetPoint" />
          </mxGeometry>
        </mxCell>
      </root>
    </mxGraphModel>
  </diagram>
</mxfile>
